# xmcd
#
# Track frame offsets: 
#        150
#        19623
#        33516
#        50718
#        61631
#        94977
#        112010
#        129947
#        142639
#
# Disc length: 2141 seconds
#
# Revision: 0
# Processed by: cddbd v1.5.2PL0 Copyright (c) Steve Scherf et al.
# Submitted via: ExactAudioCopyFreeDBPlugin 1.0
#
DISCID=6f085b09
DTITLE=Glen Campbell And Jimmy Webb - In Session {CD-DVD}
DYEAR=2012
DGENRE=Country
TTITLE0=Light Years
TTITLE1=If These Walls Could Speak
TTITLE2=Galveston
TTITLE3=Where's The Playground Susie
TTITLE4=MacArthur Park
TTITLE5=Wichita Lineman
TTITLE6=The Moon Is A Harsh Mistress
TTITLE7=Sunshower
TTITLE8=Still Within The Sound Of My Voice
EXTD=
EXTT0=
EXTT1=
EXTT2=
EXTT3=
EXTT4=
EXTT5=
EXTT6=
EXTT7=
EXTT8=
PLAYORDER=
